<mxfile host="65bd71144e">
    <diagram id="HIP3nbAZw_EuaXWnEj3U" name="Page-1">
        <mxGraphModel dx="1086" dy="743" grid="1" gridSize="10" guides="1" tooltips="1" connect="1" arrows="1" fold="1" page="1" pageScale="1" pageWidth="850" pageHeight="1100" math="0" shadow="0">
            <root>
                <mxCell id="0"/>
                <mxCell id="1" parent="0"/>
                <mxCell id="7" value="http://ics2o.mths.ca" style="swimlane;whiteSpace=wrap;html=1;" parent="1" vertex="1">
                    <mxGeometry y="20" width="820" height="530" as="geometry"/>
                </mxCell>
                <mxCell id="9" value="&lt;font color=&quot;#006600&quot; face=&quot;Comic Sans MS&quot; style=&quot;font-size: 27px;&quot;&gt;&lt;b style=&quot;&quot;&gt;Volume of Rectangle Based Pyramid&lt;/b&gt;&lt;/font&gt;" style="text;html=1;align=center;verticalAlign=middle;resizable=0;points=[];autosize=1;strokeColor=none;fillColor=none;" vertex="1" parent="7">
                    <mxGeometry y="40" width="490" height="50" as="geometry"/>
                </mxCell>
                <mxCell id="10" value="&lt;font style=&quot;font-size: 23px;&quot;&gt;Formula:&lt;br&gt;V = (L x W x H)/ 3&lt;/font&gt;" style="text;html=1;align=center;verticalAlign=middle;resizable=0;points=[];autosize=1;strokeColor=none;fillColor=none;fontSize=27;" vertex="1" parent="7">
                    <mxGeometry x="15" y="80" width="200" height="80" as="geometry"/>
                </mxCell>
                <mxCell id="11" value="&lt;font style=&quot;font-size: 15px;&quot;&gt;&lt;u&gt;Enter the Following:&lt;/u&gt;&lt;/font&gt;" style="text;html=1;align=center;verticalAlign=middle;resizable=0;points=[];autosize=1;strokeColor=none;fillColor=none;fontSize=23;" vertex="1" parent="7">
                    <mxGeometry x="40" y="160" width="150" height="40" as="geometry"/>
                </mxCell>
                <mxCell id="13" value="" style="rounded=1;whiteSpace=wrap;html=1;fontFamily=Comic Sans MS;fontSize=15;fontColor=#006600;" vertex="1" parent="7">
                    <mxGeometry x="70" y="225" width="110" height="20" as="geometry"/>
                </mxCell>
                <mxCell id="14" value="Length" style="text;html=1;strokeColor=none;fillColor=none;align=center;verticalAlign=middle;whiteSpace=wrap;rounded=0;fontFamily=Comic Sans MS;fontSize=15;fontColor=#006600;" vertex="1" parent="7">
                    <mxGeometry x="10" y="220" width="60" height="30" as="geometry"/>
                </mxCell>
                <mxCell id="15" value="mm&lt;sup&gt;3&lt;/sup&gt;" style="text;html=1;align=center;verticalAlign=middle;resizable=0;points=[];autosize=1;strokeColor=none;fillColor=none;fontSize=15;fontFamily=Comic Sans MS;fontColor=#006600;" vertex="1" parent="7">
                    <mxGeometry x="190" y="220" width="50" height="30" as="geometry"/>
                </mxCell>
                <mxCell id="16" value="Width" style="text;html=1;strokeColor=none;fillColor=none;align=center;verticalAlign=middle;whiteSpace=wrap;rounded=0;fontFamily=Comic Sans MS;fontSize=15;fontColor=#006600;" vertex="1" parent="7">
                    <mxGeometry x="10" y="260" width="60" height="30" as="geometry"/>
                </mxCell>
                <mxCell id="17" value="" style="rounded=1;whiteSpace=wrap;html=1;fontFamily=Comic Sans MS;fontSize=15;fontColor=#006600;" vertex="1" parent="7">
                    <mxGeometry x="70" y="265" width="110" height="20" as="geometry"/>
                </mxCell>
                <mxCell id="18" value="mm&lt;sup&gt;3&lt;/sup&gt;" style="text;html=1;align=center;verticalAlign=middle;resizable=0;points=[];autosize=1;strokeColor=none;fillColor=none;fontSize=15;fontFamily=Comic Sans MS;fontColor=#006600;" vertex="1" parent="7">
                    <mxGeometry x="190" y="260" width="50" height="30" as="geometry"/>
                </mxCell>
                <mxCell id="19" value="Height" style="text;html=1;strokeColor=none;fillColor=none;align=center;verticalAlign=middle;whiteSpace=wrap;rounded=0;fontFamily=Comic Sans MS;fontSize=15;fontColor=#006600;" vertex="1" parent="7">
                    <mxGeometry x="10" y="300" width="60" height="30" as="geometry"/>
                </mxCell>
                <mxCell id="20" value="" style="rounded=1;whiteSpace=wrap;html=1;fontFamily=Comic Sans MS;fontSize=15;fontColor=#006600;" vertex="1" parent="7">
                    <mxGeometry x="70" y="305" width="110" height="20" as="geometry"/>
                </mxCell>
                <mxCell id="21" value="mm&lt;sup&gt;3&lt;/sup&gt;" style="text;html=1;align=center;verticalAlign=middle;resizable=0;points=[];autosize=1;strokeColor=none;fillColor=none;fontSize=15;fontFamily=Comic Sans MS;fontColor=#006600;" vertex="1" parent="7">
                    <mxGeometry x="190" y="300" width="50" height="30" as="geometry"/>
                </mxCell>
                <mxCell id="22" value="&lt;font color=&quot;#feebff&quot;&gt;CALCULATE&lt;/font&gt;" style="rounded=1;whiteSpace=wrap;html=1;fontFamily=Comic Sans MS;fontSize=15;fontColor=#ffffff;fillColor=#d80073;strokeColor=#A50040;" vertex="1" parent="7">
                    <mxGeometry x="15" y="360" width="111" height="40" as="geometry"/>
                </mxCell>
                <mxCell id="23" value="" style="shape=image;verticalLabelPosition=bottom;labelBackgroundColor=default;verticalAlign=top;aspect=fixed;imageAspect=0;image=data:image/webp,UklGRopPAABXRUJQVlA4TH1PAAAvk4K1ADUL47aNHEnTf9d7URfeETEBc5p1sny6IcDIIN0NTby0IXwTt5Rsy4LakE35/unMTGZztgFvixr6j4aChtDOK887k9x6a9YNzu5wZG6ESQOZ72R3ND7b92qO2xzTHm/muHeni2Emy4wLnd6ToctE4efC9N7UGSoG0zeuk97cey/pvffGPyf/xznv+573vOX3vue4d5tQGKGNQJhwtzqXAA1aDNx79wKECNAr994JEHTvVqEKxNViQ/fe7QFmSeggUGGo9CUwwgofjJXA9JACBsjs0t1WlwgQpkXgS3FZgx/UFhiBlhvTuFjIKlxgBEJfCqMuus5ytFjoc1NbuRDCEODhpNDd3mBVZmc2TFsK+7kXAgOIi8X6S6WyxGoRghTSGw1YnQCzcyA3sW071RJCBh2vfAYuLWXWQJ1+8ExbAACCbfQb+4A97ax3azaKXGPOjG1zMepY18a2a9v2jOu/Jdp2wzaSHpTuKbk7s9NRC/jQB+mV3Pr/lT1xd3d3d3d3d3fbfwLuTe5z89wkTJA+U6Sio7MX5nBv2YYFHDq6LIB2HPocBqB0l51Ih0vtvom1zgTs4A4lc/zxt0qHd/cciAEAEGiOyrZt23bNtm0b2bbrKAcBAJBterZt27dt9t+R2zaSxNm3BwwQVxl1xED+/3y3mu7sM3ems890pjOdfeYus890pjOdfebOdPaZZ+3s+77v+77v+77vd/aZO9PZZ561s8/cZfaZZ5995i6zzzz7cs7//HP+/+mT4zmzJEpJqUZKpZQSLq1QUqdKSoVcQp3LJZSQKonzbCmXuqVULiX1paRKI6VSp1QulxJK4xBaqpxSjVNKuJRSEqmS+FdIKZFLiVNCr3JpXRqnVEq5UkqTUlqlpFw3Uqp1SqVc+lNK41wl5dlSqnVKCc82qdJIlF6qnFIqpbTnElKdLVUap0RKuXIpjUNIRP9l0bZtpc3cMCJtHmiVXO49F/v9ILZktPyn5b+HHUtnP9kUucVm1Nk3hncFwkXwBQIFugsoO/vCX8RwYnhreG94PdSwaKgZip2d8RMpYDO8SSUSCcOKYcBQN+R8RDr7LpVIxRMJw7phxDBYWUDmGzIinqgzHNYl4obNIYZEfXkBkV9IAWc8Fe+XSMQNO4ZxQ9owXF9fpNUfpAg4lajrY5jtnorvYJgyFAxDfesNjSLNfiCdfVlnnTMsG0YNe6mE4bh0QnVxcXV1kSYfkALuRGqoYWONoWLYSiUMrwwLhpKhWt23uLq8yG3fjyLQVCLVxzBX36LrNazVJeLdqtsSl9dbR8kf9Pno7KtUos5w0K2sRWs1n6Zuhg+JxKbFB4BoS2IdyysN5RH+HgV8iVT/SWtWd2whPQzzdYnEPMPYAaB+mhvWMWR5pb+XSCqCiCdShu2K6g4IfXq0GCKJRLx5Ylv02to9KpdbhyHv49HZ19Y5w75hqeyWlHMNmI2vR05W90/Fhxsm22LX1ta25EKOAnL/jgL9iZTheNOmFsqzTYNm4+2Rk1XjUgnDkWGmpW6L2pac1uHjJZKKPIqnEoat0sq1VGebhszG0yMnK5tTif5TWrJbtMUyxEqqi/27RFJn31rnhjcOKSTPF8g12MVs3D3WOp7PqEvEV5bX2ochWVLt3yWS+ifqFhpWDROtuO4NPNfQbFPjJj3Mf1O/ukRiw2Kb2pYMhlSJb5dIKmCPp+LzBpa35gwbupjqpqKpcPIaixllb4IcLRkNWb8ukVQEmEqkDLs1xTnyHZHC8JlMtUzm3iBbSaTsX9UWDaHWEByFJZL8uGLNflUtFDsih1bcG0QUdUQtZO6fir9c0/YoB4AxhCYgz+x7jfDdijWHzjBMD3ic0CaKOqJEhUwLU/EderclqMUOQxg9VvtqxwK75GPK8hy5ECOKChleLpXobphryYZR2xbDEJmOJpJ8tmLND+42ET0X7mHTAW1eKjHUsDgAx49LJBXwJFJDJ63ptX/ykES0YV0i0W85jg+XSCoCQ0o+6ltzhxYrkE8sGve0JZMHgCQfJZVIIslHK9ZcWdZC3j7XEa2hy+dGmXwei1aSqUR8SVlbVDIH8AhLJPlpxZoxL0OLfMHZpoHJqzLLLFqJxVPxl5u7ea3D4Z8lkk4aTySaS6s7IIQ2F1vRxVTJIFzuv9i/qi2+A7Xz/bJE0u5IseaQQooQYcXspW+WWYT8KkQy2VKvE7W4MsgfK9ZsxY3+dG14ps9dlVnUsYX1OLn5Nq01P0ckk72csOrdfbFEUpHHSLFm+X9ECdFPbNaan6GSSRyKRJL/VazZd4MQjy6maiYT2ZhX00pbMtkX/1XERFI5kkjyw4o1SRFFEYphri6Rmlf1JrUUx2o0keR7FWt2gKejRR1B+mcNc6a2LaYhutrfSiS9r3Xu5WqK0XNYQpNATlL3T8XHrdnVEUQZ5GslkkYkkGLNVpwhJTlJZUsmS1vqccT/UgYVcKHFmp9LJiKQkxSIZLIlhyO+lzKoCAQt1iwkC3G6NpBZa3o+CZFMOkNWBlW+q19VrNlCYRaBdoyzu0yOMlfHMM+mbrZksi+OT5ZIGptI9Z/Uu9fVQwL5ArPtp6LLcHDJJBp0iaTiyl4jfKpiTRIrGuzCD/uPCC2KKCaZpD+wRJIP1SfrcLNC4icNpoaplFkU4VHIjPTP2r7WxeE/JZIK+K1zm65ZbJ1z+MRUzORzEyhkXJiKLxz4jxyhUQb5Tn2yWnOF5EA/IVBI3wfpn+WIj6UM2t0+Z1gckqM4y4GO6MgnBLaZYUsmS5zxr5RBx0+k/suGc89+9dAxIofoh0gmnfGtlEEFrPa5geXHCN3SWEeWTLpMJPlHxZo5Ch2RnLk3CCIUkkmXiaQid/wfhtrFmobxpw1d/p0gmfwgd9TeZFSJP5RIKuBAijVLOsA70dURkmSSGnKrt+JqvyeRVASEFmsWkoWOzHaA1D+rJasjLpRBflOxJtrloMseEempKLl/ltvY/O0mIIkkQ8E3KtakSbKjNXLYgUgm651xoQzygYo1nf+8YrapYSqjSXa8Hil/BEROkkkGiaQCUt+mT9aeSLFmK46QgtlWS39nKhDrDweArmVy+DqJpAJepFhzdRhSfTI5k1nmRCtxRDK5ORMO4OEAJJFUpMWXoQgce7koDSHySUcUJy7XHZFMUkPZ6s2/KdZsxR5SYX8SRU4UMiL9s/ZiQ+183yaRtDPSJ2vx1UPKiCJntmlGrD/UsjqwRJJvU6xJyR40dECdZP+qSlbUtiXxZRJJT9CXi+YoznLBTo5E3eoQ6w+Oh6+kDPqKF2u6+bMztvWHGRPfBMOPSiRdR+8hLxelois1j4VZf2B3TEcTST5LsWYNUqxJ9VTUqtmkwb1k0kWrt+v6KsWa/apaKMWoQjoutsIu/OCkC4Yjk+NQySS72P60q9FEkp9SrNm75HEof7qiLf0JKCKTLA9DAksk+SnFmjlyIS32++vp2GZGiq5/lk+kDBqRsos1J55oFg3kN0TRXDDrD2wPQwZLJPkkjux692rNEVJAekMUJbT9s/whZdCjIsWa9YVkITX0n0SI9YclZW3RahnHfCyR5JMUa7qILp+7KhPRUcjS30Ey6Sclks6Dvlw0RMJ1kp06Msn+QBNJfkixJnvI1R84HGgiyQcp1nSHVfdBQJTIJDtl0HV9jpeLtuIJ3UIVpOoP9c6wVAb5G8Wa2Dn6JDvtX0jWHxzxe5RBu6cSqeGN1mvB3XAx9BOH2g8Ez35EUSspyv5Zfo8yqDvyctHXCF2xomFpFGUiunqkyFEy6RMlkj4Ne7koJQ7vr6fmcohr+Y1wfKFEUmffISUffXPkKYo1KZb0vzo1hQwuJZOMWr0NGOEv0NkZzJEdVbEmxQ5R1GyDWn+gxpdp9baudW6GXazp+hO7pT81Z8SsP3CKzV8KVQYt9hvG2Hg525GdS6xPjpBZRE+0ck86yaR/owwaYhdrIo7s3Ib9SeSCKZTWHzgog3yGMTZ67Z8idB97RJEbHguz/sDzQBNJ/kKxZh5HyIDIDZhkcs2uODwTSX7CGBtHn8WdQkbUtTwO10SSr+DIjsWfXbIxav2BGsat3nyDMTZeN2QDXXTsYHiVHGb9gfOBJZJ8gmLNQorQPSuc6uPcSCZ5H1giySco1nRP1xUNFosIMJRMclMG+RLFmtRL+n+SKwiu5bkfaCLJDxhjI2RAviCaZHcDff8sfsogH8CRHQ3UO0RR4WD9YYeBp8Lhn0jy/o7smHyygvSGKHrJZB8HyST3RFL543n7MTY2CJmE0yeuJJMl/Knd3hD38omkEXGHl4syKPxw92eya3kB4vKI5bvqyo/37mNslKDnGCU0d8JhK5n0V5RBC1KJOuTlouygClrrDyKEIYAqg8rf1auPsRFyhZH1B87KoNN58zE2/hkCsyQ7fe2Hy/5Zfooy6KnR2X9fNxQDYv+s/2KYI7iWFyWR5MHH2Dj6LEZ0XWH92S1UkklhEklevFiTFQ35gnbhhztYSCYZLvXmtYs1jxGyIl9w9jPZ7693D279QaQDTSR56mJNqpeLumzpHzEAdy0vUGCJJE89+y/9OTo7JG+WWeQWN/2z+CqDsESShx5jg+qcqzdEsaGQGbP+INSBJZK8syO7WSG7mL3U/oQFhYzj6PpnCaEMKn9Xr1ys6faccPdPNjhbfxAskeTRizUZtPRnwRkRyWQl/hfREkneeYwNAZLsTkSYa3mxYhje6s0zO7JjmtBkFYZ5l5JJ7q3ePLAjO1F5hgSdZFIcZZAHdmTH8RMekkmBlEHetliT8bmuDRZug8K1vHCx/VaeNpE0Fin56MX4XL7g7M+yZ06ngoH1B+ESSfWV/8rDjrFB3W2Dw/vrGVh/8EUSSdNcvlyU1fvrmfTP6leMI2YiyauOsUH14/4NUQypQV3LC3p400RSESQy+2/lMVjzWbO7EOyQ8JdMitLqzaOOscE67KZZDLk+pWTSx1AGHd8u1rQd2TGngdEnLiWT/oUy6AJ4sSaPoDtL9uD9wu5dy4unDPKmxZp8Epru9JIurD8Im0gqAvCUY2zMPeXVQzFxYf1B4ESSpxxj43FCLkRscJBMDnlBcY/L41O2eshizRz5kD1d2TMScS3fFqVW4ONQnjGRNCKBLZgMBzZD7ZCwgJVkUqxWb16xWPO/hxy42GyLzDJWkKw/tMURmQ/sOQpNJBW56VGLNVm29GeFG+sPPoQy6HS4Izt2UEwaypRtltBJJkVVBr2GFxxjgx00k4ayxNm1vOiJJE/qyI7hG6JY4uxaXvhEkgd0ZMfzE7bgCwco/oEmkjzeGBshr2igfEOUswdvEu5dywvY6s3jvVyUX6yKCMFUMrmrIHjVKVt3TyXqHB3ZsVeUs8SV9QehlUGebYyNVtwhRyL2bNxMJ5n0FZRBn4bO/vsfpWIbbOEA5TiwRJJHG2MjFAzG1h8kSSR5sdl/Txmj4ka+oItPWFp/kCWR5MnG2OAGYj0jQwdP6w+CtnoroPBiY2wwg37SUA6/yp1k0uu3ehuRYl2sSTtpKAcICwco0VE8xEMlkt42Tj/GBus3RLmAsWt5n0AZlMUd2XHkYuikoax+lSySSa+3Dj7T9sQWTIYnlG+Iouzgzcb6gwzKIO9UrHn1kGtgn7DQprmz/uAnJJJeFXdkxzn2yEQRG9z1z5IrkeSVFkyGO1G0Ew8eK56wFw5QbOgXNs47ObLjntBkDdm1vGQHlkjyQsWaMkJeOEDZDjSR5InG2OD+Z+a4tf4gizLI+4yxwZmL8cDR+oN8B5pI8jiz/3aA50zXFbPDKDLlGePW+oO3VwZ19i06xsYGIW8autgt/RlDa/1BwkSSVxljYyHbl4u6nDSUPVSu5X2BRNK6aLEm1Tkeb4jiRiEztnCA8sW/wFu9eZNiTco+WTzfEMVJMlm6l4R84E3sVm8exMP36dDZfx895I/9CRdcuZaXRRmE7SWDRxljQ4BAPuHFGWldy0umDPIuY2wIUPjBPFxbf5BMGeRVijUFSmjylExKGR/0dpgyyIM4shMO3pJJaRNJnqRYU9gkOx/rD9ImkjxFsWaO0iyBYW394VTUSNTqzUMUa7ZQEePcChd/Zmj9obuL/lkStXr7eM+zYDIhDzski5jDYOEAZVQGeYViTZYvF2UyaSjToJRMSn14hERSf+YvF2U1aaj7PDsBrWRS5vAGmwP0acwd2TGaNJRpLbE7yaRnTyR19p2LMTZ4viGKJa5dy8udSJrgBcbYECVQOyQscW/9QeZE0vLy62r/7L8d4AXiz2S4wM76g2yt3goItX+MDYHCVMlEEUuY98/yxq3eTleHzP776KFIRBE3XC4coLzKIJ0fY+Nz5YaRZFJaZVD1x+v7VrJh50RJsnOHeuEAZVYG6frsv/82FOvvnHBh/QGERJKmF2uG4tBVCJwXDhCERJKebyWbSMy2+STOuF44QElbvWl4sSZDR3YsJw1lFMJYuZaXs9XbBA8zxgbLSUO5BJX1ByBiKppI8gLFmqK8IYq3ZLK4FpDDTiTp9Oy/1MWanN8QxR/6hQOUXBlU/3heqVjTxZqQcoGJ9Qf5lUF6vZVsYgXxDVEiSSbhSCRp9VayiRYvxOGfpvpVH+zgWh6QRJJeO7KTKnskhGt5qVu9afVWskmVZGfsWh6Qoyfe6k2Tt5JNDhhWf4DkICiDtHmMDbmS7OK2li97QccDBmWQDhdrwoCrhQOUCoZLj63HY2wI9lQ0dBy+RIw9mqMXdrVwgFLjZnOANHf2388M2cFh0lDR55FcSCahCWz7TjV3jA2euFsTUvExsf4ATiJJa7eSjR2MJw3lhGSSSSHWwUdrt5JNvE/QSUNZYuda3ou2ejs+vpVsYn7CBaj6Z2n25gAdxLeSTcRA3xDVSYxMJeLzDKP/3xFQlEGaupVsgoapGEV8cCOZBOpAEknaOsaGkAlNnrCx/gCKMmi6lhZrwoQb1/IwJZL0fYwNHpOGcsSl9QegEkm6WqwpQc1mNf5RwjwXck/5gkOueJsl32SoVhmqdQ32KQZK6w8QQd6PbZ0eY0Mo75+Rgc7m0TCKCnppVqtAq1cJ5TYqP4CVOkjAStaBDt4uJJPuFg7QU7Z6y+LFmmJysXx9FIUflyzelYHbij1YdgLITAEA5TYW6xpYRCYltP6g6UuPfTr6l4sK3NK/Af7JF+yTzNPghVKpgyJqdbyYdWIUmexTNQwidHM/tseydmQnyKShNdiX7YOp0IcBtmrnaXaRyV0hwnE/tvVxK9kE/YT2DVGNsK9ajZAdgwC3rZ91zpm1locI5/3Y1lZHdkK/IaqSdAN00SzRQYsl7+qt5QWfslUTt5JN7E+ceY0ZxvhfTCKTTtYfQEskaaEjO3GDdnBl380Us3hX61Dv7j0yyWC357Rv9t9CilBglk2mKvw4aPIrYva3NtvqDwCExu723PHJY2zIlGRP1yyV2ygy4LeeMq3+AAH6uttzBaxUY2zI0Qwm1jUGRC/NJdgmnWn9LLCUQXpXrCkfASs5drqIc2RU/YHStTxcyiCd20o20f9M9cllzOMgbAH9sSbIr4x27f/fRzH7kT8DzLPphd0uHCBE0O7Htr5tJZvIfBYtsa6RTpbFQmdrzjOVK9/N1OHasX42zD8Vk19pzWmnC3dBrnhHMY/EauEAAUwkadtWslEjsh2SH4pdFH8zeKEsYZ5D5up1RlHB6kXz2o0iQq3PVup45ehmGOmAxbvy2hlW1h+8ZiJpRIriteAidjmgHQ3P+dzFj0ODLmeeepV0uLEjA10B78A5L6WfXwJA7+fRILBkUrKhjHR2wWSEmjS0CfK1fNMwnRyjWaKWe+3GvO0laLEAdLmz6zQt9NYfIIJ+P7Y1sVhT/DdEJZln+kkOkxtB88Jmat7OUsz9MGwG/ygxs/4AmzJICx3ZSfCGKI+DUK1GYBvi7RPe3k/M8cqpIjxosOyf5Q2VQefBizUFZwXlJ6Y/0qlhZKbgqdDZihOEh2tsQi3mScGNZNIw90gQ4Wo/tnXLkZ3oQbsmpMsBQH4IGkXFKsJdcBLEazfmFNhIJqFMJGlWsabwMTkTUcRG1QYuGAGavgzZuoAGG8kkmIkk3XJkJ2FCs0c4AhRvH89GPqYY5rTcW38AM5FU5I5GvVxUUh4q9CEA6TFO4rkfKvYQxOxLLmWcO4Cxa3nAWr1p01aySUoj7KNeJaQAH20eTZJ5Vi8aIDtaAf/hQGRS7/Zju3sitZCwlWwSFn6UMM+ALlpFKnihJEnVzw0SHPr7Lz+EUgxzUafk6Kw/gKgM0qWtZBP9t9IS4xkww5iwlsT1xJcAyI3Ab7WYl5hTcuPA6p/lfj+2NWj23w24/vBdE9K7FwQjQH1DUoAPHgehqPG0ZvtXteRwxOMpg9yOsSHa++vzeWme1M81/ZER6SAnSLRMVZoYAKg08TTtss08Z8h8mSPZiVf9YWUljidMJN2I+Rgb4k0a+liCSAKXc5KXtwDkh5BBgufYoFaRHsGitTywiSRNLNYUcNLQyEDX5pNk45y0EodOjt0LIHE79rEcyVZiFBUPdIaDA/Rgrd5GiDDGBvc1IfXajTHbB7OEeRH6+z8n2TTD3I+CDz86xcEBerBWb2+bQGb/leFcGNK+IaqEebJ9MDDPvYgTZMnXmOWb2odkyTdKHUR+CGfLNt19ZJLRfmxrzFaySQHtG6JSDAujqICFzjYkhdwD5nhl498Y/0kfxot8cIBSw3lzgLRlK9kkCeuTiIIk8/QBYhQV80Q7kmbw3+pFRxNzp9fzQu7R4drRqJCP9rOt/gCiMghLJGnSVrJJ1dJ/lNWLdkqqUSZjPD0nXvpHapbIaUMBK1m0d7hs/Cf6bqTz2nXwFqm1/MoSZzyaMuhVHRzZyVr4MS90tjKKCtp5yn8t4wKXcVN7r6nVCJNfuedgx2Y/3G07PsCJJENBR4o1aX4AeBtPC/CPN57oGHfbjg9yIklDijVBgnNKAEsmGe7Htn4Ua0r1CXcAlEzy3O05bRxjg8mZkHIHMsmkLm4OkOEkUeemWFPQ99fn82aWiQIz1/IeTBn0ae5eLirs++sFASrrD2JsDpBGbCUbM4SZNFQUaF3L96uXGkE2B0hjtpJN5DdEiQfNwgECBrMv2IE2bCWbTJ+syiwTDRcLBwh5IkkPtpKNZzA5E1JRgNb6A/P92NaBMTY6IstEaH0S8Ys2OAkgXMuLuvTY6p/9twN8KFdEwoSE1h9kWwcf9Rdrdi17iAjNwgFCBI/92Fb9GBvdC1Fcy0MEl/3YVvwYG93/axYLBwi1MkhbxtiQ0PunaK7lwU8kKXwr2aRis9kMFlhGNNfy8CeSNGPBZER+f/0ijm75oZdM8tqPbX15LbjUw5eIZ/0B4lZvat5KNmZIMmmoyK7lIVcGKXkr2Tgi5pqQgutaXpaVKtUVR3YSzfIEn2t5WdfBR8FjbMgW1J8w9+DNx/oD7Mog5X4z+eQL9IuxwTwHxMS1PKF/liISSUrdSrbHCWWMKBILJq7lPVMiaUEqUUd4uah0SXZhAFIyKdRuzyn0m8kn599Fg4drebhbvanzm8kHOjBLJrVmP7aLwOLYVrLJR1cRYepaXgHKIF3YSjYhhy8RC3itP3Dfj211LpiMhEn2RRlh4NA/y9Mog04aT6TYjrEh4KShMvBY8US8z9zNMbxQIumK7MfYEG7SUOFg41reAyWSntPFGBvyvCFKTNguHCDwrd7U9s3kk5MVgkwaSvTgzcv6A/St3pTmyE7SQNeEVKRgbv1BFcog9RZrSmGHJBIqXFt/OLxyDiyRpLatZIM0yQ6ya3mxNwdIVVvJJjU78YW39QdvogwakaBwZAdtlwN+1h/Uk0hSkiM7IJBLMqmgRJKaHNlJ+lS0HUuu+XY6LDpis0bMhQNUQqs39RRryko75lzTuWa3MM3li0ZRrrVcK/ly+bL5Mhe4QEcsppJJJbmW14Yv2MHYRKq/vMWaYdd8sS0G7WcaMc1krmQ6Nr0yHZoOcu3l2pr/B3KtPvYLHV7JkkmR9mNbMWNsyEk7plxzgwad4xymicmZNpymPdP+R+1sOtrnkKaTfT7qo+ZzBmrJpGbsx/Y0giM7acO08Jam8S5vdqV7gDVtmrZ79DDtvs2Yc597530iIi90+Ha6LnABakRyLa8aZZBKxtiQlwcAMg1fatWq70v+UACmqbfcybRsWjWtf5lp60Y9TDsPCvgAwPcNVo3zUfPn59rE7nDZ1H6w75+lqETSu8LfJwvbSjaJ/1c2+2YZ6yc7ug1PG74ux9zxi9/yHKZF00oWiQcFRH7dPvscknCHywT2CweorESSKraSTUY6Yp4N/cla/wuPe/BidBuuNrxt+LtkSWHafsm3GTPm3B+1j32HGxG5AD82RlzLE/pnqSuRpIatZJPxydOwQVvsNDhrx+ismzAtHecjTBv4He59gxFBHgu86gUu4Az3hQNUR6u3xWr4ZvJJx2a5Zob1GbaTaTrLIO4BtotpdEfsDreNAnYbYWM/Fsi1n2trfq51+w6XGk6u5VXS6k0F30w+Oc+aZnfs8meyLKK5Gb/DzaJh/zr8gZV9h+sMJ8mkl1AGDZW0WLNrGNpnz2RqHMFUzLKLe/C8eXQb7iwprMcC+B1uRMYMgvXACm7JpHj7sQ3+GBsyxn2D7vhMkzOOP0zuIHC++C1N87/3j33Ep9oPrJD7CBwzKPPn43e4IFh/0LKVKi0CkrlYc3B2qamcacPVJ8sv+rThvvnkZzrTji/6ljvhD6x+QtuGckjCHS6z/llqSyTpVbHmfYM+qDb0yRP3aG5uw2Xd4WbRuIe2FcEM8tvYd7gUD6wuQNE/SzLJpMRLj61JxZrtmLcYNCwcnEV/RInrkDGDaCWgTNs9TDuOD6yQxwL4bcQ2S+DonyXFbs+BvZVs8hV6XNY0+VAAQsY9wGYRzHix49e+5WWf1b7DRR4L3DdYdTXywMqh1AkuyaSg+7EN9FaySXfWLvTIihzXaf6+ZG24n3zpM5nGdnxRhwdWdgIKucN9Bfeu5RXU6g3krWST6vF8O+2D9ht02SMf81KrsuJHn+Y3asOVJcWnEh5Y7bwP2bV8S56W3G1JD+DxSEgOUfdjG2ZHdpKFXQ2XWZWVLnZ80T+/03FMa59q3+HaD6xw6w8Va6om9i1e3pIX/VcVpgwCeCvZpHvyZBoxNexqOPmwHgtM7nIK5A43a0V7WtT6w892tbRiSk1jY0VpU1VZcW2typRB8H4z+aSrhstmrB9Zo7n5jfZ88qXHtGhPjbiWz9P1AM5VNTWt6T2wtLSipqaWzEj1JJI0xZHdfltgP1nx/hefBNQ6cOjCASYri4eUVVVVzW1a03sMkbLi4sf/X/965MiRKkkkATvGhlSFHln0B4RYBxa1/pA87TUONcpQWF1eX1xWlkwm79vFr7g3l8eMsTiAFzXYbYR9h6uGVm996yv/FajfTD5Z9JDIk6dtspAE4lp+eTKZ7AQaQ86jy2PIY/qYQ42ansTjK74CvY2YUtM4paJUCf0HsUQSnGNsSHLur9lnz2GaeKbJoIBaf+gEnMSiE8jMGyRJUVY2t6qqqam39escYPVYALB18AH0m8knSdhnrUIPUGgtilh/iCEmHaITGPbPjZq+uKQau8O1byMwKkqrJhLucGFWBoG5lWzSxBcfc7L15AkU2tMhkskYapI2Yih59J+91TXWm3C1XpV53MlkEr/DLS2dUoPf4UKtDIJxK9mk00OKz59GaDM2k6M9DSKZzNOZpA/0DjeP8bMN8SQpquY2YXe4jg+sAFUGwbiVbBLQTmdI1EPKAFL7wYj2XiLWH/JYk2yjsr4Yv8MdM4b8wApLQIGYSIJwK9mkePI0jKCHhIbtUOsPjHkp+7HAavsOl/zAqtZ+LNC7amJf+w5X4xJJb5tAt5JN/EKPQZYe8rKmqSwa4JBF+2clWcfMmfYd7r7rTUgSn1j17l2K3+EC2Oqt/Hmgc2QnxeN5pP0QVKALB9gJiC20D6zwBBTFA6v/1ZbM6TYCjKXHVvkYG5vheshVWahoLYZIJmMISY6xIInFhMUDKpf3LZtoP7AiPbGyE1DA3OFefl8skaT4Ys3BO3b5Mxm4aE831JZMHiUpQswcffGXQlKjJfUOD6wqpuB3uOAog5RerDk4a4nG23BlwaI9DSKZjGElhYmZM9949Gdv5fTAqgm7w210eGA1EgJlEFjFmlLoIdFqOLj4EkQymacnKW6U1BNKncgPrOzHAm7vcOXYj20FO7KzCj2wajhLNA4Yu6DWHwSm51b7ngC7w00Sn1jVNJJKnaROJMHkyE50PeTe5zhCFg3IyKLWH5jB7bFAHv1n20V4SYpSpxr7DlfypceGaCvZZNBDQshKpH/W6yeFjwUzb3AUcqnTRPSBVe/SUjLLEY2cVK3eANpKNpHPfjUiGrf1kLIGnZIsrcXrEvF5ZTH4pGyBVy5XVVURH1g5aORkafUGz1ayyaCHzEIYrUUQyeQNpGPmG2/Zc6tDIXe4+G3EV4wZU0rUyNUqdj+2O/tWjjE2Bp/C7tIPIi+GWH+IYbpAgjtc8gMrao3cyJFCK4NA2Uq2E8WopNBDgkh7asT6Q57upMSxgPjAilYjZ1cu1yOVy4Ium4ICx9jINTOMWA0HI7ssQSWTMMRnEzRyTg+sahqn4A+sFKUMKgLCxtiQQQ8JJduh/bOAwL1GrrGipbCgiSQotpJN0GLNzfbbAin0yAIb6MIBdgIEAvcaOYcHVuhjAUESSVBsJZvIXfqfaTK0oNuOf2ogYKCRu28XqTVy/Fu9wbCVbEJarsP1kKZShgnwSCarrpqELGaSNHJJao0c6JsDNC0l+ILJ3DfoFx9zcmZVFlpeDJVMAgEDjRz5gRW1Rm7kSD67PacuR3aDs9kXyqy6B1hw+VrE+sMfSsIbvdxr5KBUBp1U3AWTeRSyHhJcvgSx/pDHBgRCaOSmEDVyjJVBso+xIVWXfmlrPyzY1X5kt0O3HR8IhNDINRE1cqyVQUop1txs2KD9XHTpl74eialkEgoE08jVUmjk3CaSpC7WFFUPCTmo9YfXT0IfD9s5wYTFvTCNXJJaIwdJIml3bIwNEfWQlzVNWQ2oIWc3xPrD+ZOqiJk3IGjkktQaOTet3hTiyC7GYushQYJt/6yXazoKEAimkUvSauRqiUQjRzrsx7YyHNkNziJd+iGnPc1CRDIJBBJr5HBlkJxbySZuNRxUMJVMfo3q+GxKjdwUkkauHEskSbmVbCKRL75FH5IeEizYSiaBQDqNXBNRI4ftx7aMW8km2n/mo3pI6/E88GRR6w9JRcYChwdWfUkaucWnHTCwcc3E+iIguLeSrWu+KNqlf2nWDvhpxCSTKo5DkTRynaDyBJb0mzJwyIAFss3+eyLR9JB2A2r4YNo/68xAIK9GrrLbpisrmuoNha0KsOX7ZvKJFPnSqB5SEbQWRqw/3MAFLLGF22tJv5qBZSXr3cTgnybZN5Mvj0NI92CAxT10rWyr5LD+WSqPGK11ds1yQ+FjDP+NnyrZ7L9HnyVnl35QJZMKJ0Yxr19N6cSSE7yUwTd+KszFmoMY6yFhlUz2UjcVk+yzi69h6Bs/Vb5vJp+A7sFYAK1kUt1nN6wZWFU+6u3+xPipEm4lm0DuwU6RVU+g1h86ASqZGO7Aed2mrCleva91VsatZBPKPZiCQK0/nFrFxMjnbdhYWlU5wRC1zso3xkblMQTRQ2LuwRTEbkj/rBiSgs/GqKyzvfv2ss/K+SWbks09GMiSyXFrXlzNZ+dWI2fl/GbyiaOHtN2DKQeS9QfV8jHN3aYMHNLrUIb+8QXY0+Qs1hTMPZiKaE+FSibVSif386Q3XVnaVD19q/Hjp8o5++8GQughzyauHhIQ6w8ry1WKXehRM3DIACuHufU0SR3ZieUeDEb+NC/rD30VSgyvAin0QHKY0jqyE7lLP3y1H6wlk6dW5+N5+yyWw5R1K9kKyfjrIVH3YEDDWjJ5VVWejdFtiuYwrbPybiWbKO7BQIaD9YcYilpzmPZZibeSTRg9JOAwtf6gRGI087pVrClebRd6yLyVbMJ06YccptYf1JnDRAo9YN5Ktv0IesjR2azy2A51La8+eiM5TKTQQ+qtZBOlS78CyfZTomTybWfYOUy00EPubyafIO7BlEhjnfokk682d0m3KQP72jnMqXJvJduyWZzdgx1zckYJsLX+oDJixN02bSydi+Yw5d5KtrNfnfNUQ7Z7MPDRCMlkjHJJvyl4DlP2byYfXz0k4h5MoRxZcZLJa+9Nm8OUs1hT3XpIAWytPyjrLCoaN2RuYv2/wbyVbMMGKUYPqQf9syrQHKZ9VvoxNsofh797MMUGunCACiv0KEcKPQDYSjaO7sHY6CGVJZl8fQVVw9GLxqUr1sQc2fF0D6Zm0G3HP7WKCj0acdE4yFvJthmuh1y1Ss18gpIkk88WoyGJxmEYY4OvezD1QnItH0NTjR6SlMOEYYwNmdyDeZj+WTGqZkQ0bkhZZ4FwZMdXD6lkSK7lVfJ4fsaGSA7T+azMxZo8Cj3k7tIPimt5hegh0RzmoQwBSzQOhSM7Lu7Bvjir/OhWh1h/UAQxom62aLweKfQAYoyNNYsh1UNC5FpeDeTpR3KYaKEHyI7sNgtdugeDu/YD8eDNybW8Eh7PIw2o0UIPQLaSTSg9JPD1SJysPyimATUgW8nGzT2Y+mlPM04RkskYHSmHCcpWsvHSQ6oKDpLJPDZlNKB2PCt9sWbIjlwzw4h6SNXB1LU88BAbUAMzxgYfPaTiYG39QQkNqO1CD1hm/30cZo/nHdyDqQ5lWn94tt6kBtTQjLHB3D1YRivYDVk4wPMDLhonNaCGe4wNbKohJcLY+sPcoyigATU830w+poUetnuw0eqDi2QSbD1kI10DahCKNfM4OLgHUyMqtP4QoyQ2oIZ5K9mGhUQ9pOpQp2SSKBqHeSvZ/v4WqtRDWmSJwda1PNBn7Rym9f8G0VayMXQPptpQnPWHGB5RNA7TVrIx1ENqC0+AWn8AWDRehYrGQRpjg40eEnUPtooJCpdMzr0BrHrISXYDappCDziKNcHTQ0LqWh7SHCYz0bi8juwKKQTr0u+RJJOHsnOYaKEHUFvJ9hpsHs9ns9nRQv6ox/oD4A2o4RljQ2Y9pKZbf3g2uwF1b7QBNVxbycakAXVWh2Il6loe1AbU1lmYt5INdw+mRUxBrT/AKRpfzxCwcpiAbSWbrO7BtN36Q4wIdw82fvxUyLaSjY0eUtVwkUzCZ/3hPAT3YOOnQfbN5IPMPRjUruXhdA8G2+y/kuohlWb9Afw3fsMwxoak7sF03foDfQNqgIo13RV6YF36FR6cJJNKakAtnSM7d+7BzpRVfvCSTELrHgyiYk237sH0AB7WH2BtQA1rsSbqHkwP4GH9ATL3YIeyzgK4lWxu3YON1gYYu5Yf+E/hcg823T4L4ILJuHcPpl18iWEHkUxCJRofgLgHg3kr2R7FBu/Sr1/sMg8k6w/X3ptjA2oZHdmd/er0ekj9+AHdtfyrkRtQg/jN5OPpHsxDSSZjeBWkBtQgbiXbBnRd+nVFD8netbwyGlDLOMaGG/dgugEX6w/KcA8GxBgbgzWkGo5X/yyI3IMBuZVshWQc9JCaVCX3cqnEf6nI0w2PezAwv5l8fKvh9EcyOQAc92BwbiUbV/dgOiSZBMY9GKDfTD6aLv2Shrpcy8MnGv81Lv9cTzsRd6A6AMOPYDoQ3cHJfzz+r3MRkq1ko3EPtlRSNNW1fCeouc2u3YP9FKS7Ev661tby9htY/ubGvo3yS+aZitrpe0htv8PvPxnrWW+4HzBbyfbXvnrQFqZFYd2DKd36A3DuwX4m7LdTvDVHt+TDbdm7E0M/ivK+3P/Vrvxal346/J0avHWH31HubnkN/wfBSz4gBDxbySasezC1W3+ArQH1QWhuxUmO97fg8zeyeED6NBrfl+2ikcU3MXtP6PIXa+YozoLDPZjCXMtD5h7sV7j+jBcNgi1r0hg/X2uBRGAx56cgAVCsKceTJ9Vbf5C9AbU792A/WOft2QqCYJOHBkjj8X3Ybb6t0gOBy1+syck9mGZJJisBcw82fU4QjI1+LGEa57f66274bE714vJ/M/kI7sG0SA/JzbU8YA2ov4P8SYLgFn38xhZ+lasE7hfmW6pZjH1v+b+ZfKK7B9N46w8xvAomDajXwb5N+2OD4CTPmiZw96R3aN2i4acgSb+VbA5d+vUITtYfoBKN/2J35lwhCILbtvsQgCTujueWvbP4ZiYfFET6rWRTk3swiBYOUD73YKwaUBch2z8Ni9IkLhlYPO1vdE52R3ZOXfq1CR6u5aESjR+EJrC4TftPS+KBwe7IiM2PJgNiK9kGZ7O2ezB9AjzX8jGqZlYNqH+bP78nl80L/iQcEgcnv14QjF26q/RbyfYoRPdgugR81h+uPWNDZg2of5mb57W5Y8PET+5S5NYdBkHDnRrs7Od0Op2Wd4wNtNCDU5d+zeqf1a8YKPdgz7M/8zabpEm80xWC4HiHS1vIO8bG2vzoZlBkNTcMC6hreZjcg+13Gw5s7kKU+N//t2MnCIKLbGzz0ADnkHQr2dbWx9Q9mP5JJs8Pk3uwe/P4tuxZXKE9N4l7xLD+HDziZIsHB/r2CmfZSMoxNv5tiLkH0zjYLhwgTO7Brno0+988DYnvxZnrtfVP3qH1tMXj3qrj872LrMWaN2Onh9RBySRMovEXeRn739yYRL7RhiC4wtombL6TbPTnZN1KtsHZS+laNRwX1/IwuQd7j+/NYXHCjhQEbni8sUHQ83txWvwCLbdr+1ur/CZnpfxm8mlcNRwv6w9AuQe7f6i1TVyB9J/3v9G5g1K/U2DFk/w4Aou9tvyJuFJuJZu+6SHBsv7AbAHqja/X0MKnb6X6CzUj7PNhc/74qS66NHjBn4CXTj8A5Bk2eQ8Zt5JtLaNZLfxhvHCAULkH+yE6Wpk5yUXaGLgX1N/i79e9L/e/H2tLc3dg47tJrpt+7/2ZX/q8Z0k/lH/3L3BnGvfjroyO7HLUTKOfm9XneALEtfyZwXIP9tAAZ+l5heNd5Sq36rj8EIj25/B//Ot4s3TZlndq8KchSDnGxp9hpIfUTMkkYGMkv8v9Qd8z2kFo9ro5QVD+S9068Y9kfK7XleunyJN4Kj68z7gWVltYzjG+Dsr7iIf2WH+Qwz0Y1FGEYPho+GT4/IpPvmdiaPeFH9xaubVie51C/av6Y/1BijGSwabIi4Xd+8cTqT2f/BWDJ795Kt7/v+wwrrXSq7fXAfavA3bhAGVwDwY3F5vXZ/jwcR+88L/0HxpP1T25Hl+st5skcP+sbmT3YICzoMQwaBhd09hvxhLD7ssN/+Ad/gvlxXodZOEObXAtD6V7MElLNqcW4BYQHmpCr8q+cweu3JTmYl2HXqzBu43Qg4UDjOFVEBtQKyGmdfZFkdtbF+C/3QkWYxfrZtLFuo54sR7+6q0VrIu1RkomBRSNi9+AWlaBGnaxru47t3Tlpkvsi/UOzhdrTflvLwBcyz9bjGaSiwbUqrhYT936iIaofbGeuKZxQ9qL9cIPpr5Ya5X1B/Hcg1E3oFbOxboA780MqekUF+uEfbEO7Is1GA+sdGDhAGM0bhpQq+1iXb58Ym/0Yj3O6WKN/bfX07yPFlysWS8coBzuwRR5sR4yt7QbzcWa/JRfo6w/yDBGsjIv1gU4RzztqMXlxfbFeh5+sR5qX6yRp/zEi7UWWX8Q3z2Yki/WA6qHNCEX63Hki7XaU6PMFw5QdPdg6r5YFxDoxsVavoUD/LS93bgH04CL9XrTB9QPaZrSbRJ2se5uX6z3VPDFmvnCAYrtHkwnLtary4ur7It1H/LFWon1JKxay4vsHkxbLtY1ri/WWiCZFNg9mL5crLcatbrSvljb9SQvN+6DF9oX6xTFxVrx1h+EdQ+mQxfrqw2oL2uq6TdjSZ+Xc3OxVrb1B1Hcg+lYdHZmxNQvxC7WA11frBVs/UFo92CadBtxuq2/5s+ud7US0sX6g3dQudzjE+IJ2/qDiO7BNO5iPWF1Zd8qrHKZcLFWrEbuxbrz/FWu3IPp4sV6jfuLteIkk/zdg+lovMbp3vUL32zfCb3Qi7VLjZxGuJb/mGYXYyTr58X67U5wNYJGzs3F+pTqt/5wbVdjJGvqxXqqdbFmpJFTuPUHB/dgQIZKNXLjELmHGqw/cHQPpuPxGk4aOdqLNfrfXtC7lleMezCFyj3ejpVGDuyFA2TrHgzeHKY2aOTAlUyWnp7TGMlAhk5o5IYjlcuQupbn4h4MytAWjRyMruV5uAcDMvRHIwe/9Ydn6w2waNxjaORYHBwgZ9G4V7xYA+Ranq17MChD2zRygLqWjxHvTVwDMChD9zRyMFh/iGErpwG1Nmrk5HYt79b6w94AN6D2fBq5XdCFA2TRgNoQAvT/TVs1cpBIJsljJEMZuquRk0syyWSMZCBDmzVyklh/YOAeDMrQbY2c8K7lFSEa13aNnLjWH9yOkQxl6L5GTkTrD14wh/kev9Vfv8nZX+/CH/2Vrm0kv0ZO5P5ZMSryGMneiMM/VW1r4/szf4fWb9P+Ua/yjGrQyCGSyXo37sE8Er/J2fUbtt32fd937Nijfi9OMDRyJ7PlHtwlk3QNqMd7qRzmc/0MuE7ETxZY8fWt/FhCiDRyHBcOkHaMZE8Vv8uvP0CPzbdQvzJAGrn/gmnkeFh/cBKNl3iyQo/vr9dm/wK/zkWoNHJD8QdWPFzLH9ehAbXH4j8dIgiCsT+cGTaNXGpod1xYzKh/Fo1o3HOx1/Uslm4MoEbuyYlP+V27lqdYAzDvxfdjjSzOtS5Aco/ldHKPwEHuQb9wgI6icS/GnYsFFm3FN4JcI0chmSx2akDtxZh5CJtnVYFGjuhavom4BmDejBOfy/4n7xUFSLlHNQON3BMg1h9Wk9YAzKNxONtW7rb7qEMjh0gm++JrAObZeMyGIGh4zPdIpy/xR3+J20/6ugrQyMX3jC8cOABzD+bduH2bQRCs3577Pjz8qYg/UPdd85/hu0qVfQ/9z/jxu0OrkSt31si1NnQ3en4e0C9ytoACyWF6OHa17Tgf9Qx3JfyS/+B8H/Zh53vMbe/AxkevC7dGrhtSubzz73Eqnf5Xdg7Ty3Fg2pPY/+T6a5v4IToeBDRtxbFu0/77BnMuALPc40q4Rq7I/XQ6vfXUtLeLb6u01CL6LtK4afaOFLfqONh2+Ylhl3sUkKbT07zez8wtxwbB0jm/0rU0xokeMQiOeieGfpOzaX8vdg2seF5ibXtFEAQLP8Dn4+5Jbeb8bM9J3KF1iy1/Iq6/x+5Pa/NkuxP4nX47ocXxfpAuf4+/NMfmzsXSafLpIPrOMv4eh18/CIJHPA2Jf3sR+y/fj9Xf44aBxdF+lhck/sbx7NM3VQ2eTAJ0hl/uBonrL7VYtquvx++/a36bjyOOS36SsUEQPO95fD3+zsvYbENijP0TJH2+J/XXD4Jg/WOROI398/WsHpTa3+OvHS0Igie5fyjSvH2XtP/tM7yHv8cu9iScm/wdAsc6YRAEi+4ZLe3v8eBA57U49G9wnjQ2WhAE0TumfT5m/i+Ll3kRwszkR7O4U4P/wu8j/Y4W39T0yXG+u+DxgvddeI2078fJLxkE5QcnRznPW1UEV7h9m3877QPGfbv3mMd738yxLDr7edcPWz/oucnnpX3B2OW8Fz3J/syf5j49eMKX6bm05ze0tPihAdJ+YYw5379cun50hfXnbPyb/ZP2FeNJr/ygILu9eNqXjEfwHy3/aflPy39a/tPy38Na45/OOetv/oXN6H73/sEPf49P+Dk2o1M+6MRjC7z617ETNfvO93n5536Gp6Fe4vPYgn7kcz71o97/3d7xNq/xooKnPQYg/rPZgj7rtV72xV8ow9LgVeOfEdiHvvRNp73OG77F27/vh72egI3ot3/qx3/yZ2//S79xao/nYMBWzIc8l5b/tPyn5T8t//3bgxfZz46UsZMt6O/+6Nd/FZO3e3a653nXntic+TC2vz87NjY20zWXHlfMPuRqvGf1aDtT729X0/cq876lu19LC32lV6bnxZ5TTUtyPGYnnF9hDZP+2TU26K//6i//Yt6ft78/67pSMuNDOy9IV53c54e/+PNXfkHTb/yBDh061PqmL2u48siX/JCGT7jhX9HwSPmv/fbv/uYvX7ly/V2ql+ZO+/i3eptbapxb9H7dKUz6xa9f+emf/HEf2fED3u9T2rMsv1P/yGcMmurW0S9t5W+pkzvcNuaE4xWv+NpvuWHDBit9Z0WkIv3dH4jvAZc2yzZQpOe/0ZvYvUpkZKjZ3VFpnl/5nuE/qnGu//5v+AMmlTeKtHzhgsnP9kzPHJfAqgRstlPQH9pnlQmKlVQnHYyElvEvUODp+fRw5M+XkfNSXXpqYNsm4QsmC/gcWUSgaXx+w3uW9m994uUVxUS87l2dSZ/5aqMceU9HUZTK6F6syl0/5mXiHeVSigKVfh918g8//V0z9mZ1BWyc32vY3pQ/06jB5Fryq/M2JD4LxXuDjzar+3v1opBmksyLB7j5yACoAk+Zx6pEBa0Y+bGhQMvzt7lzWp3xjyEhsT/vyaDNwHmx4Uy8XGIvzjLgJJrV+dPdmZrOKUx4UK3iXJrk/Zks7EQj85ffmi5x2ay0WuN3qyopDIvTEXPp8w6FC6VVRppTar2mDEAZOCsKsbDUeXO67CPdFEvCJ6mlGLduwJzf/7S4DKuDSHPSYpglByiB/TmIhalZvwjdrh+zVu0T8s2WHIw3ns2c+ifFF2vaQpMy8X8FFCijj4awMgvf25RG6VkOqTZutpFhdP2WWGass8gx+MQ6SJPyM04AwE/8UGtWZmIXLk1Eyz0s19ZbCDAu6nsGEz1zfxx8XM6tLkaale/tSiOL+6okkkxfV86XyHmaQfK6FxORu60zINKgyZx4x+nElcoHmv5LEliuP2ypxkh9z5s15rDXOXrX1zTSrNRb359GYDQ6iiSbe1gcrsy03Nv5vXLFAhEZenXaKbFMix1u8mYziHdpCIzp7KqcyXJNbyfCUG0w1Hi9Vxe99HaHNK/Rr6sDAShRG/LeRTJ9lH75mkz3D3ta3uAIVxaRj1D09/w+ZpvZ9QZbmb60GfHD1KCXpCtxCWK5MuvbAiavX1LDtYWb7fOWXaiJvX3uUgkAZ9QHk/cukuYF1EW/KIQpSSlvmyr+87sJ+ZfmCrXjhlrhzL38ZowJTN5UhrDzro2moZbdA7HenFpYihE630GDT9p95OWOtSkTpHk57A8AXPOGCEXpJoUn3ft+RC1ueZyKf2L5ZkyIqmjF5bg8WlOaDdWjmiWFJ+lGkfae/O+co0oeU4uZvfQqY6QnyiahWPqgPxeAkq2ch5AD5g432x7AMnvri8kxYsw0qLKI3VxcmWzmG6B5WZ9II1o1A6FaO2daBH/hLxAVUCpNCNLCDZnwEydxwNaP1Q9aV6VXVo/GO28ki8PAdwmkIpbOYEL3fK7EuGF14r7DFgA48d+WiZB2hyN+FlnbUlazSt1KFKTowoI1+MQ6AY4ZFnd3QJqW87Zk0Hj/7/pxq+J0XDJyFDaLlrQl9sL1KrUsEmTpw5I0LICxsoVCVcnp04hyqVvbaYTCMqOwTrZnQ3d04ZYt5U8lXHl5u345qsCj9TX+1WInUudfZ42Ie6IIgFIZXeEwZcsu88hRGZb2RRftv4RFfuIFORiBJin440pm9tFjDm1HmpeTrWxpJHFHi+4q0TKrYw+7wNS4q2sRq7lNWpGl4HOzNRqWH1zBUSycOcWdyf3+0MY+Qj3jCo2Dl828xdwxwe3quZgaEW+Jhu/wixRlWHV/IL7HHPDmTRv2m2T01PvJASj1zLpHOs0NatOvduMujvKCIywuZ4lqrjfAiFg6GE/7C+c6mndOQuS45I4DK6aQk0ON/zsbiUP57GNpxKPsHtdwXTftuy8fma0WZFRYQ+yg574iK1IgiGvoi3t7g6M8sV/FEFJGUHt5ZMiT07Mq3iVB27zBzlUKf28+x6Ul8Wd07sAPTE8udOBkvBep1+F6hno2I6e7k6DPUhWN5H89g6yWtU4xT1i411nN5zr2WMEK3btntpROFjcSt673nRxH+XVzIKlHes5R/aKh5OQlz524zu8Thke6SAGktkGd+zfCnLv07OECSr3GO3IJLssUMon9+j/BOfk5EH2sTvNWrogEd18So1aK7SvdjLlfXnVqxKiVAN63JqGgMmR27Ri5d9BgxgZobnefaNuul5JS1+e7UocDAErTnDFP3FN5NULVE6ot5gBfMZIlfmixCUOa2BSvbdvcxbvERERSZs+VKCkgJ+/ymXMmLBCFhB70bbV+U3OEzaH9zgAQv3M6IrpEKvn+DbWxR8qxRiIqcc4ViIxcMUiHT0HOlhXhDAfZgxvUABC9aCAiYbldlkLJ6zIjFtvy6J4v4hXd64vIUKefBPvPaVemJsNRq7mBGKS2br6s0LzeXMyD7tIZ59VR10ZQ5DAiyxV++XEjSMqcbUteRJi/jF0lojF1Y1xRyHB9AKAetxwRi26D4Eg+FderG0LI+uBRLgi3rENkqDw0mwJKvGpKLmJwfm85AAS6kTK4lnunrES+rdVlu+ntsyf6COQ2dXeTNMiOragVh14Yy3hvO6fLgBI8rhUr1L5xQcwHx6wbGKQELBa6LUekZV2HzTNIymNf9T+Lc7ppqIDG4DDeoffhc4EWT8JlElEN3CK5klDaEnK+VQQ/3q9iJikGBgQCKF364syC0/1KAzEAZbkekRL30W7HiTLoy+4ySyN4NktIWlGKE9D/RnFZCE7rbm1/MVDcK1mic5pHcuhsb1ESS3unv2O1UkhzywKhGEBpo8Zxr3Nt6IpfnkS4f3RFlr0kIuFzyx08miqjreRUffr28pcBiJc+3B3nPL6vrRRAbHwpIie6N1/grFfYasYZ3YsbRoSOPDWJpGfDyDj67cTaq/H238KFA9KI4OkssXRzaDExHc8H24EX2yvBVL8+0uRYRUhBKioxBG9Mul06nX5dEopMRwenywukT97lLRaOa5uLSHHjgWQASp5ljRhUv6EHFwBEQfMRSYla4ZadbHj0Jg9HvfxtpP2KapAWD0Dxlg70whG+K0IKHJemiBVKmtKbS8f1x/7FycVT7Qdd8VClema3QwRj3shVI65d+ccAR4g7KjirtpDO5jFknHiUCvYXAABfWDuXrN9fGwvzATimVe7NyHq4lQwATHvsQKRlRZ6xPEJPlWzTEJGWKb3VABzTqnijTA7Tw/gA4hFlEEuMroWEjrN4GeYf2sLQpdPsh7JGy6WbnI2JJdtzswYcyuhwAMSh34r7ZAuIpjtggMjIHavGAwDvatLGayeEYuZl7sJ9KZ6bz6dRzFlIZsn2MhcAlf8wRJ75XQGAG7cS73C+ummqFEBQohSLFIwp3aTUPRBCDmYKlX5J9FBmr3OYkFiO07DEsfpOUyUAdxXuUOTsXSrMbKY6ZHggg6eQNgN0vYIPoHSsiufMvjpKmoQOiEQNlo0C4PoPcyBNwKX2AMDrchmeoH4iCoA3FLFGzYZFY76VygSh6pfZFDCusUcyAlZPqEswI1O8NLoqQktDGskjt+MpOUIJAPzG5qRU9New4QGAOKavNUkqFVYCcMLW455smSRTAAWuvR2pHRSbeACc1KV1SdPEzZJG76YdAXg9YTYqClQnVmGRvFr352NGkHwMdaeY6HlXXeeVlu2wziWaJKSREnpSkHq3Qzi0r9IBANDLa0TKcKhNhCrQQChR2ddoT4pW1URSAH76WNzSBCc+AAjdZpFogE+yLMfelJdq9ESybo4NKAhABW5MQowy6xoqAbwr7GCRojbbCej4I66ZnWcq2XVxkub3QJ3Eo0CGO96Fbi5biM5gEhmfObSrWhV/63Zp/lyZsHMLMuyz42COE654DcqDRSia/Frh5J29ls+P4Mb3W9IpUqBnd2E4OepOUwModQYgvF62LRwKwHLqHhbpflPaiDCfqLOl9jSxXhXSxx0Xrhl8MkmZ//ByDqXJOjFSRh0jz38i7nbxZMz0hHLNCHMYaiygXB43vFHPR/oDRzhMmwRr4gBAKqqAO+B2JJLO6jxElsxJ9nK+MO1yj4sXCKU8n8PnkKKGUAkgsauCt/M37sJU1853Z5Ee6HuBN50ycK5z6mIL0mfn1ZlqFeREUoI2dFSXHod+XbULB0DP6hS8Z+fKi1RAyRK3ZRLe41PrFlVBjsX5sSipSZ4/h0pfspy4640BgO8yE3eQ38+F8YolZwqalmkVRdTuASNkfIO0O1qj3MsX5PCTD4zcTYasVACINqmIV2LT1wUAREdH00f8hnd+YhRieekViP3C+GTbMW3DSZ8kdjSapyYpvFSbXrmlx7lgynEyChx77MPrfzcRUSC1LTvEi6Dwcjvz5fycsmuC6HvfZKr9sYJsEopz14wAAJVBJdwZAav0ACjBuLsgVGdmdlnz7QRVPjdfIIvJWkx/xK33LUiUOxav70tC43lRMgCMqoQ3VDSkhIpGJ2shQiFTTCJr67I+ZeIBs8lVZV/lisim7dZVR2hJTsKcTRY3Kz3aOMvt5BSY1m7CqGbrrmKQyuN2eCGCPNrl81Q5jUvGYnf/1L7pPFE28Zu3m6YEEBSZhDtzKoYLwLF8zDkI9ZwrDCZ6pPQ4t1iyQLF2nzV2zP28qgpRoQPdiS8j9eX0GeV4Y6arxxpRNB5VYhHqNmxE4jVerI9aocQsUu+W5f4VHuQVE7Y1LU9OBjymT+lS+7HdxFaKb9//ekspbmRHwveqZndznjisbB9XnKqVtXG8As7txhN0l2pqKcg9huLIvTFQCiCzuyNC7jdGGg/YTkyjpvl6PPu80YxtpSTDqga86OIT5hGVFykDkBY5iLe9Mg4AlLeg132Uu9Jy6RkOrM8QHwFFJ+/y8O1IM0z1jRlKKHhlWwaxrWMAxJYWbR9IdD0cJ1YKy1bEbbb0XDtCwlfUINpxNSeeA5L8bTiDR31KSABAcuUshLr1dfHc50Ds9kpntdp8/6zteK/j2X79uaKTuu8mqJq3EijJBrzRsIXjLgIAvY7dEHIdrN9/HGKFKZuqBKD4MbWQ5hiHgzY8qchuM8N647XRwHdZdD7Rr6h8OE6qzCh7uyQNiiPzYlSUsEZlgp94gCflxtRgOL76Xj85gkMB8C5YjpIG3tq+FyIS9+lmCpXaeQ7SIPuqWoojjB7TnpCQTWIApUsl3AGGBZY06eVbIPeKV8dtGMsSNRdyADjxa5Gmmb12EeLASmeGWOeeU/Mxni4yVdhTUoiejzUYFCrnmC7YoWGrc10lY7EqcmossUP7yKIiWcZN7V1zrV2DSg1zMi2YoVaCetks19G1YzwJ/SjdfW4xAl5CDY0nC61oqSMxdBq6mogdznwAvvN1CHcjmwOgv1d7dduOxSZPQCzRdel8oARObZHmmfU2EQLn2udufmI7Cw9TnqH+1H2IoFMHJYjEYQuYGYXsv9FYporJCye0zKrh4a2OrDrpwhnrO97CJq53uwG9C3EkVsOOzLTxeSKxGpMLjOU8myXMVNCvSFPwCp40lMhJmUu2GCjJZPynwfLgMKXUfsFj9padVuFCxBqd7yEDwYhJAZqoiUcq2OcoPA7sCouOdy4+c+8ewg/ZyE081XEtXZjZuwCDqTESsfF6ayICWvXyPDEwLNvpgLlO/7nLpjisHtypf6pOgkeo0yQHQjobyyM8hm1l6r4uTrNX29Z7OJF7uihVxrNvir/HAdrB5oUCnbv03lVtvgOrLP8oO2pxaHlNdWgiyn1fu2r6xgYGxku3lG+1Opz4KWGlRD2D2qOZ68vYvnWjMW+xZyyx/gX3WTs3eKQrYjzajEvJbYYCdEMGVTC331S2ljsipOqoxZvKWDP3iHhdnubPS9xPqE00ueuBvH0anVD6XneTjX9Cmzm300WsMk/se1VKpmZbAt1++vhDy5ffRduXnHdWM5tWb++8JGaPA2fsnDuiKtHuYK/29xp/aPmh8dN3uzN0HniYHxpfmejIQ/MuPdYwPWU9vGelOMVeQmWDHt20d2s4aOJQr/L4Q+YeNZMQy9R+uq8mcdt6zYTyg5blLblmwvCJqLSKx6lD2hM4B7rBoFzpeakR7SGHCLxYkjya9PRFDxtl98Gr2gTlOx+XaJ8QdIuW1z18axRi+6X96NYl8m30D1TwXJpwYoZ3hn+1ORdbs/3sS/PperTvyadU3PHw+Xn+4mM4qfY3GbL7ljobnWNu6sAwkX9PXyEAUPFbDrH5/szMPtW5Y1tzxgtbjsFMAwmrEsLWU3GyiC8JtDnC4IyrMaWkok6nsqkwlW9LbRcxDJos74i9dFT2Gi92nqb2fABKYqOLXe6eh6HM6DydnWeSgo4bY4g9Ho9fixVoxtZTy4e+kcr4biRDGmM34lIc2Hncr4mTS0VFGQefGzTD4B5dweb7Vh3G+eV1ZxgN9+3uQydJP6KN2HsJubu5dnvG7/XIiwCACnObdW/EPkzFLhKgZKm3Pi+Jjbg2CY4H4AhnTrFG7EDNFm7dus6wg99xEklh/bUTvRBb0Jk13Nz8ru2aIZEnXtv6kgDEHnRDNScnO+ccW15qEb9aNwQ5sAdlbuvcef+gmVbZlhcZ9TO7bHwUYh/mkuHN5+qBcvGmtQu9EBsxja6zkwJFBZo0iWInLt0w7ynBd1x6R3ai6qVOUgEAx7bHRHbicslMzP+PQ2rceTkbkfZGEdCTbLKPfecug+csuKDh8D14PaRmEdhqYqc+bDuHrjlqaVvQ2GQCjhYrscDmerad4b0NxUqOOjIYzxEGxQ6y7QzozwEAKe8o3kZnLM6BFLad/abYaT/6eL31zRk+5UoX9t1syTAlAFDHBuFYnqbGCFu7lW3nsqIqAOAXssC7ermnAAAosd3eRmw7OzqlUlKu6eTNOFfkXaPDBwC+zk523tWzunuoU33WPpyxUNOhZyeJFEBpu2UIYuOJuiY0zMmtO+N51Lrg/gCUwLJ3OfZeOXHuuXN1cmJ6z6k7vO2Ksa0bR/KBo1ekZSsvdt8UoD55TqN4jqPCIk9MLGwrA6ne9id2Y/9VbVrfvUmtLZ02GHU1MPZYWsFky/4hbMJ5QOF1tk4sdelVk4aPXre1znTETozveO1cxJaMlv+0/Pewm0EA;" vertex="1" parent="7">
                    <mxGeometry x="510" y="80" width="290" height="319.44" as="geometry"/>
                </mxCell>
            </root>
        </mxGraphModel>
    </diagram>
</mxfile>